Coordinates
version=1
nRows=6
nColumns=63
inDegrees=yes

Units are S.I. units (second, meters, Newtons, ...)
If the header above contains a line with 'inDegrees', this indicates whether rotational values are in degrees (yes) or radians (no).

endheader
time	pelvis_tilt	pelvis_list	pelvis_rotation	pelvis_tx	pelvis_ty	pelvis_tz	hip_flexion_r	hip_adduction_r	hip_rotation_r	knee_angle_r	knee_angle_r_beta	ankle_angle_r	subtalar_angle_r	mtp_angle_r	hip_flexion_l	hip_adduction_l	hip_rotation_l	knee_angle_l	knee_angle_l_beta	ankle_angle_l	subtalar_angle_l	mtp_angle_l	L5_S1_Flex_Ext	L5_S1_Lat_Bending	L5_S1_axial_rotation	L4_L5_Flex_Ext	L4_L5_Lat_Bending	L4_L5_axial_rotation	L3_L4_Flex_Ext	L3_L4_Lat_Bending	L3_L4_axial_rotation	L2_L3_Flex_Ext	L2_L3_Lat_Bending	L2_L3_axial_rotation	L1_L2_Flex_Ext	L1_L2_Lat_Bending	L1_L2_axial_rotation	L1_T12_Flex_Ext	L1_T12_Lat_Bending	L1_T12_axial_rotation	Abs_r3	Abs_r2	Abs_r1	Abs_t1	Abs_t2	neck_flexion	neck_bending	neck_rotation	arm_flex_r	arm_add_r	arm_rot_r	elbow_flex_r	pro_sup_r	wrist_flex_r	wrist_dev_r	arm_flex_l	arm_add_l	arm_rot_l	elbow_flex_l	pro_sup_l	wrist_flex_l	wrist_dev_l
1.483333	0.018678	5.849171	96.525927	0.271538	0.750895	0.937637	-7.001507	0.873316	-14.356976	8.025621	0.140074	15.551980	17.333918	0.000000	-5.894151	-0.883716	-5.887415	7.974130	0.139175	18.793250	1.426905	0.000000	-0.811225	0.372456	-0.816873	-1.506527	0.495366	-0.867928	-1.332762	0.905588	-0.867928	-0.927149	0.905588	-0.714764	-0.753304	0.759511	-0.663709	-0.463534	0.576934	-0.612655	-5.794502	4.213292	-4.543203	0.000000	0.000000	-10.661085	-9.588879	3.795617	49.535324	8.040881	154.851292	0.154658	0.420109	71.747309	-24.711824	35.721443	2.227592	195.579447	0.054479	0.814331	-69.945563	-24.675732
1.500000	-0.040338	6.160036	96.490859	0.271605	0.750140	0.938052	-7.270626	0.830825	-14.203970	8.137463	0.142026	16.018267	17.096363	0.000000	-6.143583	-0.862964	-5.893807	8.141365	0.142094	19.095561	1.443186	0.000000	-0.855474	0.375270	-0.564605	-1.588701	0.499110	-0.599892	-1.405459	0.912432	-0.599892	-0.977722	0.912432	-0.494029	-0.794393	0.765251	-0.458741	-0.488818	0.581294	-0.423453	-6.110567	4.245133	-3.140161	0.000000	0.000000	-10.702854	-9.647290	2.148326	51.546823	8.438834	156.944267	0.152074	0.434925	71.399790	-24.696275	38.465246	3.540916	197.870310	0.055771	0.854509	-69.885719	-24.688540
1.516667	-0.052101	6.378360	96.469777	0.271522	0.749057	0.937877	-7.474015	0.836072	-13.958216	8.200886	0.143132	16.549037	16.783303	0.000000	-6.353857	-0.866021	-5.737028	8.247063	0.143938	19.449374	1.293713	0.000000	-0.889169	0.383619	-0.311980	-1.651276	0.510213	-0.331479	-1.460816	0.932732	-0.331479	-1.016231	0.932732	-0.272982	-0.825682	0.782276	-0.253484	-0.508071	0.594226	-0.233985	-6.351245	4.339576	-1.735138	0.000000	0.000000	-10.503695	-9.710135	0.642405	53.299669	8.569813	158.586810	0.152122	0.448982	72.234271	-24.675984	40.897514	4.865814	199.548474	0.057840	0.894169	-69.871360	-24.648172
1.533333	-0.057858	6.561862	96.492457	0.271416	0.747926	0.937475	-7.650795	0.857957	-13.762209	8.235991	0.143745	17.108612	16.532522	0.000000	-6.554495	-0.875342	-5.497320	8.315389	0.145131	19.813698	1.107865	0.000000	-0.920229	0.395085	-0.106353	-1.708957	0.525463	-0.113000	-1.511844	0.960609	-0.113000	-1.051730	0.960609	-0.093059	-0.854525	0.805657	-0.086412	-0.525819	0.611986	-0.079765	-6.573103	4.469278	-0.591505	0.000000	0.000000	-10.174173	-9.896459	-0.417350	55.054675	8.747752	159.286747	0.153210	0.439997	77.217851	-24.694926	43.038155	5.967044	200.562384	0.060394	0.923719	-69.865590	-24.571019
1.550000	-0.069385	6.653822	96.569327	0.271339	0.746818	0.936733	-7.762246	0.882989	-13.605441	8.219895	0.143464	17.640411	16.309120	0.000000	-6.696634	-0.873675	-5.141441	8.331674	0.145415	20.124696	0.840588	0.000000	-0.940353	0.401083	0.071595	-1.746329	0.533440	0.076069	-1.544905	0.975192	0.076069	-1.074729	0.975192	0.062645	-0.873211	0.817888	0.058171	-0.537317	0.621277	0.053696	-6.716844	4.537127	0.398188	0.000000	0.000000	-9.811163	-9.985668	-1.305254	56.345347	8.789596	160.739904	0.153123	0.452270	77.958657	-24.685955	44.910621	6.942034	201.033625	0.064535	0.945832	-69.859883	-24.445498
1.566667	-0.092797	6.681152	96.704401	0.271305	0.745807	0.935794	-7.830792	0.910848	-13.469804	8.157434	0.142374	18.109469	16.066109	0.000000	-6.794951	-0.860654	-4.688172	8.305658	0.144961	20.369444	0.518401	0.000000	-0.952529	0.400758	0.208004	-1.768942	0.533008	0.221004	-1.564910	0.974403	0.221004	-1.088646	0.974403	0.182003	-0.884519	0.817226	0.169003	-0.544275	0.620774	0.156003	-6.803821	4.533457	1.156855	0.000000	0.000000	-9.478060	-9.979469	-1.990997	57.248527	8.765386	162.798238	0.151712	0.479570	75.062356	-24.659444	46.543720	7.738354	201.017191	0.070221	0.959456	-69.857533	-24.278269
